<?xml version="1.0" standalone="no"?>
<!DOCTYPE svg PUBLIC "-//W3C//DTD SVG 20010904//EN"
 "http://www.w3.org/TR/2001/REC-SVG-20010904/DTD/svg10.dtd">
<svg version="1.0" xmlns="http://www.w3.org/2000/svg"
 width="500.000000pt" height="500.000000pt" viewBox="0 0 500.000000 500.000000"
 preserveAspectRatio="xMidYMid meet">

<g transform="translate(0.000000,500.000000) scale(0.100000,-0.100000)"
fill="#000000" stroke="none">
<path d="M2330 3711 c-49 -10 -72 -24 -113 -70 -37 -42 -64 -108 -54 -135 4
-10 19 -16 39 -17 32 -1 31 -2 -9 -11 -43 -9 -43 -9 -43 -54 l0 -44 129 0 c76
0 132 -4 136 -10 4 -6 -42 -10 -129 -10 l-136 0 0 -40 c0 -44 8 -39 -102 -60
-32 -6 -58 -15 -58 -19 0 -10 101 -31 146 -31 27 0 37 6 49 29 45 89 170 96
205 11 14 -33 37 -50 67 -50 11 0 29 -13 40 -28 19 -25 26 -28 82 -27 33 0 66
6 73 13 9 9 9 12 0 12 -6 0 -9 7 -6 15 3 8 9 14 12 13 4 -1 14 1 22 5 8 3 55
8 104 11 83 5 119 16 103 33 -4 3 -87 12 -185 18 -111 8 -153 13 -112 15 36 1
76 5 89 9 30 8 48 53 33 84 -9 21 -12 19 -61 -33 -65 -69 -75 -60 -67 56 7 93
25 160 55 203 28 39 17 61 -44 91 -49 24 -199 36 -265 21z"/>
<path d="M2228 3271 c-28 -25 -33 -36 -33 -74 0 -76 60 -120 131 -97 80 27 86
148 9 185 -47 22 -70 19 -107 -14z m92 4 c65 -34 77 -90 30 -137 -27 -26 -36
-30 -68 -25 -38 7 -72 37 -72 66 0 10 5 7 13 -9 29 -57 97 -60 132 -6 14 21
15 29 3 53 -7 15 -25 34 -40 43 -25 13 -31 13 -55 0 -15 -9 -33 -27 -40 -40
-12 -23 -13 -23 -13 -4 0 26 39 63 78 73 2 1 16 -6 32 -14z m20 -46 c0 -5 -7
-9 -15 -9 -15 0 -20 12 -9 23 8 8 24 -1 24 -14z"/>
<path d="M2320 3020 c-75 -46 -92 -49 -113 -17 l-16 22 0 -21 c-1 -12 8 -32
18 -45 17 -21 28 -24 83 -24 54 0 71 5 107 28 39 26 44 27 60 13 28 -26 88
-46 136 -46 35 0 52 6 70 25 25 24 33 55 16 55 -5 0 -11 -7 -15 -15 -9 -23
-36 -18 -96 19 -70 44 -108 54 -116 32 -5 -14 -8 -14 -27 -1 -30 21 -34 20
-107 -25z"/>
<path d="M1350 2525 l0 -85 55 0 c50 0 55 2 55 22 0 20 -1 21 -13 4 -8 -11
-23 -17 -38 -14 -19 2 -25 10 -27 37 -3 32 -2 33 27 29 19 -3 31 0 31 7 0 7
-11 10 -30 7 -28 -4 -30 -2 -30 27 0 36 23 50 51 32 15 -9 19 -8 19 4 0 11
-12 15 -50 15 l-50 0 0 -85z"/>
<path d="M1515 2525 l0 -85 58 0 c51 0 57 2 57 21 0 19 -1 19 -16 5 -8 -9 -27
-16 -40 -16 -25 0 -26 0 -22 80 3 74 2 80 -17 80 -18 0 -20 -7 -20 -85z"/>
<path d="M1786 2533 c19 -43 38 -81 43 -85 4 -5 13 9 21 30 l13 37 18 -40 17
-40 16 37 c19 45 21 58 3 35 -11 -16 -16 -11 -41 43 -16 33 -35 60 -42 60 -18
0 -18 -4 6 -50 18 -36 18 -70 0 -70 -5 0 -19 27 -32 60 -16 41 -28 60 -40 60
-15 0 -13 -11 18 -77z"/>
<path d="M1880 2588 c0 -12 1 -19 3 -17 1 2 9 12 16 22 12 14 11 17 -3 17 -10
0 -16 -8 -16 -22z"/>
<path d="M1942 2593 c1 -10 -2 -29 -5 -43 l-7 -25 13 26 c6 14 18 33 26 43 12
14 11 16 -7 16 -14 0 -20 -6 -20 -17z"/>
<path d="M2028 2525 l3 -85 55 0 c49 0 54 2 54 22 0 20 -1 20 -18 5 -10 -10
-28 -17 -40 -17 -19 0 -22 6 -22 36 0 35 1 36 30 32 19 -3 30 0 30 7 0 7 -12
10 -31 7 -29 -4 -30 -3 -27 29 3 39 27 49 52 24 15 -15 16 -15 16 4 0 19 -6
21 -52 21 l-53 0 3 -85z"/>
<path d="M2276 2599 c59 -17 73 -116 20 -151 -8 -6 -8 -8 0 -8 24 0 64 53 64
85 0 44 -42 85 -84 84 l-31 -1 31 -9z"/>
<path d="M2421 2593 c8 -10 30 -36 50 -58 20 -22 48 -53 62 -70 l26 -30 1 76
c0 44 5 80 12 87 9 9 8 12 -7 12 -18 0 -20 -6 -17 -57 l3 -58 -53 58 c-29 32
-61 57 -72 57 -16 0 -17 -2 -5 -17z"/>
<path d="M2715 2526 l0 -86 48 0 c40 0 54 5 78 29 35 36 37 70 6 107 -19 22
-34 28 -78 32 l-54 4 0 -86z m97 57 c11 -10 18 -30 18 -55 0 -55 -15 -78 -50
-78 l-30 0 0 75 c0 70 1 75 22 75 12 0 30 -7 40 -17z"/>
<path d="M2925 2525 l0 -85 53 0 c42 0 52 3 52 17 0 13 -3 14 -12 5 -7 -7 -22
-12 -35 -12 -20 0 -23 5 -23 36 0 35 1 36 30 32 20 -3 30 0 30 8 0 10 -9 12
-30 8 -29 -6 -30 -5 -30 30 0 29 4 36 19 36 11 0 27 -8 36 -17 16 -16 17 -15
13 3 -2 15 -13 20 -53 22 l-50 3 0 -86z"/>
<path d="M3175 2525 l0 -85 58 0 c52 0 57 2 57 22 0 20 -1 20 -18 5 -10 -10
-28 -17 -40 -17 -21 0 -22 5 -22 80 0 70 -2 80 -17 80 -16 0 -18 -11 -18 -85z"/>
<path d="M3361 2584 c-23 -19 -31 -34 -31 -59 0 -39 33 -85 62 -85 20 0 20 0
-1 18 -49 39 -32 142 24 142 53 0 79 -112 33 -144 -12 -9 -17 -16 -11 -16 7 0
24 11 39 24 57 49 20 146 -56 146 -16 0 -42 -11 -59 -26z"/>
<path d="M3575 2597 c-25 -19 -13 -58 26 -81 26 -15 30 -23 27 -47 -5 -31 1
-36 20 -17 22 22 12 52 -30 88 -25 22 -39 41 -34 48 11 18 44 14 55 -5 9 -16
10 -16 11 5 0 18 -6 22 -28 22 -16 0 -36 -6 -47 -13z"/>
<path d="M2207 2583 c-48 -54 -17 -143 50 -143 11 0 7 7 -11 21 -21 17 -26 29
-26 68 0 26 5 52 12 59 7 7 8 12 2 12 -6 0 -18 -8 -27 -17z"/>
<path d="M3560 2467 c0 -21 5 -27 22 -27 21 0 21 0 2 23 -10 12 -20 24 -21 26
-2 2 -3 -8 -3 -22z"/>
<path d="M2420 2455 c-10 -13 -9 -15 8 -15 15 0 20 5 16 15 -4 8 -7 15 -9 15
-1 0 -8 -7 -15 -15z"/>
<path d="M1840 2268 c0 -21 1 -21 14 -3 8 12 19 16 30 12 15 -6 17 -18 14 -82
-3 -66 -1 -75 15 -75 15 0 17 10 17 80 0 63 3 80 14 80 8 0 18 -5 21 -10 7
-12 25 -4 25 11 0 5 -34 9 -75 9 -71 0 -75 -1 -75 -22z"/>
<path d="M2255 2205 l0 -85 38 0 c21 0 47 5 58 10 25 14 25 56 0 72 -17 10
-18 14 -5 34 13 19 13 24 -1 38 -9 9 -33 16 -53 16 l-37 0 0 -85z m69 59 c3
-8 1 -24 -5 -36 -8 -15 -7 -22 6 -32 24 -18 16 -60 -12 -64 -22 -3 -23 0 -23
72 0 58 3 76 14 76 8 0 17 -7 20 -16z"/>
<path d="M2661 2264 c-24 -20 -31 -34 -31 -60 0 -39 37 -85 67 -83 11 0 13 3
5 6 -17 7 -42 57 -42 85 0 37 27 68 60 68 18 0 34 -8 44 -22 16 -22 16 -22 16
-1 0 41 -73 46 -119 7z"/>
<path d="M2861 2264 c-23 -19 -31 -34 -31 -59 0 -39 33 -85 62 -85 20 0 20 0
-1 18 -49 39 -32 142 24 142 53 0 79 -112 33 -144 -12 -9 -17 -16 -11 -16 7 0
24 11 39 24 57 49 20 146 -56 146 -16 0 -42 -11 -59 -26z"/>
<path d="M3075 2277 c-25 -19 -13 -58 26 -81 26 -15 30 -23 27 -47 -5 -31 1
-36 20 -17 22 22 12 52 -30 88 -25 22 -39 41 -34 48 11 18 44 14 55 -5 9 -16
10 -16 11 5 0 18 -6 22 -28 22 -16 0 -36 -6 -47 -13z"/>
<path d="M2082 2234 c-13 -26 -20 -49 -17 -52 3 -3 5 0 5 6 0 7 12 12 26 12
20 0 29 -8 42 -40 12 -28 23 -40 38 -40 20 0 18 5 -20 80 -23 44 -43 80 -47
80 -3 0 -15 -21 -27 -46z m28 -15 c0 -5 -7 -9 -15 -9 -9 0 -12 6 -9 15 6 15
24 11 24 -6z"/>
<path d="M2472 2234 c-13 -26 -20 -49 -17 -52 3 -3 5 0 5 6 0 7 12 12 26 12
20 0 29 -8 42 -40 12 -28 23 -40 38 -40 20 0 18 5 -20 80 -23 44 -43 80 -47
80 -3 0 -15 -21 -27 -46z m28 -15 c0 -5 -7 -9 -15 -9 -9 0 -12 6 -9 15 6 15
24 11 24 -6z"/>
<path d="M3060 2147 c0 -21 5 -27 22 -27 21 0 21 0 2 23 -10 12 -20 24 -21 26
-2 2 -3 -8 -3 -22z"/>
<path d="M2757 2140 c-14 -17 -15 -20 -2 -20 9 0 18 7 22 15 9 24 -1 27 -20 5z"/>
<path d="M2030 2135 c-11 -13 -8 -15 16 -15 16 0 25 4 19 8 -5 4 -13 11 -16
15 -3 4 -12 1 -19 -8z"/>
<path d="M2420 2135 c-11 -13 -8 -15 16 -15 16 0 25 4 19 8 -5 4 -13 11 -16
15 -3 4 -12 1 -19 -8z"/>
</g>
</svg>
