<?xml version="1.0" standalone="no"?>
<!DOCTYPE svg PUBLIC "-//W3C//DTD SVG 20010904//EN"
 "http://www.w3.org/TR/2001/REC-SVG-20010904/DTD/svg10.dtd">
<svg version="1.0" xmlns="http://www.w3.org/2000/svg"
 width="225.000000pt" height="225.000000pt" viewBox="0 0 225.000000 225.000000"
 preserveAspectRatio="xMidYMid meet">

<g transform="translate(0.000000,225.000000) scale(0.100000,-0.100000)"
fill="#000000" stroke="none">
<path d="M940 1493 c-34 -12 -91 -58 -109 -87 -11 -17 -24 -50 -29 -73 -10
-45 -4 -51 63 -54 19 -2 12 -4 -20 -8 l-50 -6 -3 -42 -3 -43 125 0 c74 0 127
-4 131 -10 4 -6 3 -10 -2 -9 -4 1 -64 1 -132 0 l-123 -1 4 -40 c4 -44 14 -39
-107 -58 -86 -13 -61 -30 71 -46 49 -6 51 -6 65 26 42 95 175 95 204 0 8 -29
13 -32 46 -32 28 0 39 -5 44 -19 3 -10 15 -27 27 -37 12 -11 19 -14 16 -9 -4
6 13 10 42 10 29 0 46 -4 42 -10 -3 -5 4 -1 16 9 24 21 29 32 10 20 -8 -5 -9
-2 -5 10 4 10 7 21 7 24 0 4 5 0 10 -8 8 -13 10 -12 10 3 0 15 11 17 99 17 96
0 126 9 104 31 -5 5 -96 12 -203 16 l-195 8 107 6 c59 4 112 10 118 14 5 3 10
26 10 50 0 43 -1 44 -24 34 -13 -6 -34 -28 -47 -50 -47 -76 -69 -34 -52 101
12 93 22 121 55 162 21 27 21 28 2 49 -42 46 -86 59 -201 58 -59 0 -115 -3
-123 -6z m199 -513 c11 -24 11 -24 -3 -6 -9 11 -16 24 -16 30 0 12 5 7 19 -24z"/>
<path d="M860 1072 c-76 -77 2 -203 101 -162 40 17 59 46 59 92 0 52 -33 88
-87 95 -37 5 -45 2 -73 -25z m100 3 c39 -20 53 -49 46 -91 -13 -64 -94 -87
-141 -39 -41 40 -26 113 29 135 30 12 33 12 66 -5z"/>
<path d="M871 1044 c-27 -35 -26 -59 4 -89 63 -63 160 18 105 88 -29 37 -80
37 -109 1z m104 -3 c7 -12 -12 -24 -25 -16 -11 7 -4 25 10 25 5 0 11 -4 15 -9z"/>
<path d="M969 845 c-85 -61 -111 -66 -129 -23 -8 21 -9 20 -9 -9 -2 -79 136
-93 215 -22 20 19 21 19 39 -1 10 -11 42 -27 71 -36 92 -26 163 8 145 71 -5
20 -5 20 -9 0 -9 -44 -39 -41 -115 11 -54 37 -91 43 -102 17 -6 -17 -7 -17
-16 0 -14 24 -50 21 -90 -8z"/>
</g>
</svg>
